<svg width="32" height="32" viewBox="0 0 32 32" fill="none" xmlns="http://www.w3.org/2000/svg">
<path d="M7 9.61818C7 8.1722 8.1722 7 9.61818 7H22.3818C23.8278 7 25 8.1722 25 9.61818V22.3818C25 23.8278 23.8278 25 22.3818 25H9.61818C8.1722 25 7 23.8278 7 22.3818V9.61818Z" fill="url(#paint0_linear_795_2402)"/>
<path d="M22.5278 15.506H20.2339V14.8066H23.4044L23.3578 16.9048H22.5278V15.506ZM21.917 17.4643H23.4976V18.1636H20.1406V17.4643H21.0405V16.2054H21.917V17.4643Z" fill="white"/>
<path d="M19.5172 16.1072H19.8668V16.8066H19.5172V18.3033H18.6406V14.7598H19.5172V16.1072ZM17.7081 15.641C17.7081 16.0109 17.7392 16.3295 17.8014 16.5968C17.8635 16.861 17.949 17.0646 18.0578 17.2076C18.1666 17.3475 18.2909 17.4252 18.4308 17.4407L18.2443 18.1634C18.0764 18.151 17.9086 18.0903 17.7407 17.9816C17.5729 17.8728 17.4252 17.7127 17.2978 17.5013C17.1673 17.7127 17.0181 17.8728 16.8502 17.9816C16.6824 18.0903 16.5145 18.151 16.3467 18.1634L16.1602 17.4407C16.4088 17.4189 16.5907 17.2589 16.7057 16.9605C16.8238 16.6621 16.8828 16.2222 16.8828 15.641V15.5058H16.2534V14.8064H18.3329V15.5058H17.7081V15.641Z" fill="white"/>
<path d="M15.6153 14.7598V16.1072H15.965V16.8066H15.6153V18.3033H14.7388V14.7598H15.6153ZM12.3516 18.1634V14.8064H13.2281V17.464H14.431V18.1634H12.3516Z" fill="white"/>
<path d="M10.927 14.7598H11.7989V18.3033H10.927V16.8579H10.6473V16.1585H10.927V14.7598ZM8.53516 14.8064H10.6939V15.5058H10.4701V17.464H10.7871V18.1634H8.53516V14.8064ZM9.64483 15.5058H9.41171V17.464H9.64483V15.5058Z" fill="white"/>
<path d="M11.3301 11.7778C11.3417 11.7898 11.3495 11.805 11.3524 11.8215C11.3553 11.8379 11.3533 11.8549 11.3466 11.8702L10.4134 13.9699C10.407 13.9846 10.3964 13.997 10.3829 14.0056C10.3693 14.0141 10.3535 14.0183 10.3375 14.0177C10.3217 14.0174 10.3063 14.0126 10.2932 14.0039C10.28 13.9951 10.2697 13.9827 10.2633 13.9682L9.93358 13.1831L9.14712 12.8532C9.13251 12.8471 9.12003 12.8367 9.11123 12.8235C9.10243 12.8103 9.09772 12.7949 9.09766 12.779C9.09746 12.7631 9.10187 12.7474 9.11036 12.734C9.11884 12.7205 9.13104 12.7098 9.14548 12.7031L11.2443 11.7695C11.2581 11.7632 11.2733 11.7607 11.2883 11.7621C11.3034 11.7636 11.3178 11.769 11.3301 11.7778Z" fill="white"/>
<defs>
<linearGradient id="paint0_linear_795_2402" x1="16" y1="7" x2="16" y2="25" gradientUnits="userSpaceOnUse">
<stop stop-color="#3C91F4"/>
<stop offset="0.65" stop-color="#4C7CF4"/>
<stop offset="1" stop-color="#5B6AF4"/>
</linearGradient>
</defs>
</svg>
