<svg width="36" height="36" viewBox="0 0 36 36" fill="none" xmlns="http://www.w3.org/2000/svg">
<path d="M0 5.23636C0 2.3444 2.3444 0 5.23636 0H30.7636C33.6556 0 36 2.3444 36 5.23636V30.7636C36 33.6556 33.6556 36 30.7636 36H5.23636C2.3444 36 0 33.6556 0 30.7636V5.23636Z" fill="url(#paint0_linear_415_1323)"/>
<path d="M30.9775 17.0159H26.3896V15.6172H32.7306L32.6374 19.8134H30.9775V17.0159ZM29.756 20.9324H32.9171V22.3312H26.2031V20.9324H28.0029V18.4147H29.756V20.9324Z" fill="white"/>
<path d="M24.9562 18.2164H25.6556V19.6152H24.9562V22.6085H23.2031V15.5215H24.9562V18.2164ZM21.3381 17.2839C21.3381 18.0237 21.4003 18.6609 21.5246 19.1955C21.6489 19.724 21.8199 20.1311 22.0375 20.4171C22.255 20.6969 22.5037 20.8523 22.7835 20.8834L22.4105 22.3287C22.0748 22.3039 21.7391 22.1826 21.4034 21.9651C21.0677 21.7475 20.7724 21.4273 20.5175 21.0046C20.2564 21.4273 19.958 21.7475 19.6223 21.9651C19.2866 22.1826 18.9509 22.3039 18.6152 22.3287L18.2422 20.8834C18.7395 20.8398 19.1032 20.5197 19.3332 19.9229C19.5694 19.3261 19.6876 18.4464 19.6876 17.2839V17.0135H18.4287V15.6147H22.5876V17.0135H21.3381V17.2839Z" fill="white"/>
<path d="M17.1564 15.5215V18.2164H17.8558V19.6152H17.1564V22.6085H15.4033V15.5215H17.1564ZM10.6289 22.3287V15.6147H12.382V20.93H14.7879V22.3287H10.6289Z" fill="white"/>
<path d="M7.77591 15.5215H9.51969V22.6085H7.77591V19.7177H7.21641V18.319H7.77591V15.5215ZM2.99219 15.6147H7.30966V17.0135H6.86206V20.93H7.49617V22.3287H2.99219V15.6147ZM5.21154 17.0135H4.74529V20.93H5.21154V17.0135Z" fill="white"/>
<path d="M8.58204 9.55558C8.60526 9.57961 8.62079 9.61002 8.62667 9.64292C8.63254 9.67582 8.62849 9.70972 8.61502 9.74031L6.74862 13.9398C6.73597 13.9692 6.7147 13.9941 6.68762 14.0111C6.66054 14.0282 6.62892 14.0367 6.59693 14.0354C6.56532 14.0349 6.53452 14.0253 6.50821 14.0077C6.4819 13.9902 6.46119 13.9654 6.44855 13.9365L5.78904 12.3662L4.21612 11.7064C4.18689 11.6941 4.16193 11.6735 4.14434 11.6471C4.12674 11.6207 4.11731 11.5897 4.1172 11.558C4.1168 11.5262 4.12562 11.4949 4.14259 11.468C4.15956 11.441 4.18395 11.4196 4.21283 11.4062L8.41057 9.53908C8.43806 9.52645 8.46841 9.52133 8.49853 9.52423C8.52864 9.52712 8.55746 9.53794 8.58204 9.55558Z" fill="white"/>
<defs>
<linearGradient id="paint0_linear_415_1323" x1="18" y1="0" x2="18" y2="36" gradientUnits="userSpaceOnUse">
<stop stop-color="#3C91F4"/>
<stop offset="0.65" stop-color="#4C7CF4"/>
<stop offset="1" stop-color="#5B6AF4"/>
</linearGradient>
</defs>
</svg>
